<svg xmlns="http://www.w3.org/2000/svg" version="1.1" xmlns:xlink="http://www.w3.org/1999/xlink" xmlns:svgjs="http://svgjs.dev/svgjs" width="1500" height="1500" viewBox="0 0 1500 1500"><rect width="1500" height="1500" fill="#000000"></rect><g transform="matrix(0.6666666666666666,0,0,0.6666666666666666,249.43517016756272,258.3983805668016)"><svg viewBox="0 0 251 247" data-background-color="#fff2f2" preserveAspectRatio="xMidYMid meet" height="1476" width="1500" xmlns="http://www.w3.org/2000/svg" xmlns:xlink="http://www.w3.org/1999/xlink"><g id="tight-bounds" transform="matrix(1,0,0,1,0.14177228794176244,-0.09999999999999432)"><svg viewBox="0 0 250.7164554241165 247.2" height="247.2" width="250.7164554241165"><g><svg viewBox="0 0 250.7164554241165 247.2" height="247.2" width="250.7164554241165"><g><svg viewBox="0 0 250.7164554241165 247.2" height="247.2" width="250.7164554241165"><g><svg viewBox="0 0 395.52 389.9725841074379" height="247.2" width="250.7164554241165"><g transform="matrix(1,0,0,1,0,276.3923943198193)"><svg viewBox="0 0 395.52 113.58018978761861" height="113.58018978761861" width="395.52"><g id="textblocktransform"><svg viewBox="0 0 395.52 113.58018978761861" height="113.58018978761861" width="395.52" id="textblock"><g><svg viewBox="0 0 395.52 113.58018978761861" height="113.58018978761861" width="395.52"><g transform="matrix(1,0,0,1,0,0)"><svg width="395.52" viewBox="1.35 -43.6 221.27 63.55" height="113.58018978761861" data-palette-color="#bc2a20"><path d="M13.6 0.5Q9.8 0.5 7.85-1.78 5.9-4.05 5.9-8.25L5.9-8.25Q5.9-10 6.3-12.4L6.3-12.4 9.75-31.5Q9.5-31.5 8.5-31.6L8.5-31.6Q6.7-31.75 6.55-31.75L6.55-31.75Q3.7-31.75 2.4-29.9L2.4-29.9Q2.3-29.75 2.05-29.38 1.8-29 1.6-29L1.6-29Q1.35-29 1.35-29.45L1.35-29.45Q1.35-29.55 1.5-30.3L1.5-30.3Q1.9-32.4 3.55-33.55 5.2-34.7 7.65-34.7L7.65-34.7 9.3-34.65Q10.7-34.55 11.55-34.55L11.55-34.55Q12.45-34.55 13.45-34.65L13.45-34.65 14.65-34.7Q13.75-33.35 12.5-26.15L12.5-26.15 10.1-12.35Q9.65-9.9 9.65-7.8L9.65-7.8Q9.65-1.6 14.5-1.6L14.5-1.6Q22-1.6 24.25-15.55L24.25-15.55 26.8-31.55Q27-32.75 28.5-33.98 30-35.2 31.3-35.2L31.3-35.2Q31.95-35.2 31.95-34.95L31.95-34.95Q31.95-34.85 31.45-34.08 30.95-33.3 30.7-31.7L30.7-31.7 27.95-14.95Q27.2-10.35 25.15-6.85 23.1-3.35 20.1-1.43 17.1 0.5 13.6 0.5L13.6 0.5ZM34.7 0.5Q34.25 0.5 34.25 0.2L34.25 0.2Q34.25 0 34.47-0.68 34.7-1.35 35.1-3L35.1-3Q36.1-7.15 37.5-16.85L37.5-16.85Q37.8-18.75 37.8-19.5L37.8-19.5Q37.8-20.15 37.5-20.15L37.5-20.15Q36.65-20.15 34.95-17.15L34.95-17.15Q34.7-16.7 34.5-16.38 34.3-16.05 34.17-15.9 34.05-15.75 33.9-15.75L33.9-15.75Q33.5-15.75 33.5-16.25L33.5-16.25Q33.5-17.25 34.6-19.1 35.7-20.95 37.2-22.38 38.7-23.8 39.9-23.8L39.9-23.8Q40.7-23.8 41.05-23.1 41.4-22.4 41.4-21.35L41.4-21.35Q41.4-19.7 40.6-14.9L40.6-14.9 40.65-14.9Q42.95-18.95 45.7-21.38 48.45-23.8 50.45-23.8L50.45-23.8Q52.55-23.8 52.55-20.85L52.55-20.85Q52.55-19.75 52.1-17.15L52.1-17.15 50.95-11.15Q49.7-4.8 49.7-3.95L49.7-3.95Q49.7-3.6 49.87-3.33 50.05-3.05 50.45-3.05L50.45-3.05Q51.8-3.05 53.55-7.15L53.55-7.15Q53.7-7.7 54.05-7.7L54.05-7.7Q54.35-7.7 54.35-7.1L54.35-7.1Q54.35-6.65 54.3-6.3L54.3-6.3Q53.95-4.5 52.85-2.93 51.75-1.35 50.4-0.43 49.05 0.5 47.95 0.5L47.95 0.5Q46.9 0.5 46.52-0.38 46.15-1.25 46.15-2.3L46.15-2.3Q46.15-4.55 47.4-10.4L47.4-10.4Q48.6-16.1 48.7-18.3L48.7-18.3Q48.75-19.2 48.57-19.58 48.4-19.95 47.75-19.95L47.75-19.95Q46.2-19.95 44.42-17.9 42.65-15.85 41.25-12.88 39.85-9.9 39.4-7.45L39.4-7.45 38.6-3.1Q38.3-1.8 37-0.65 35.7 0.5 34.7 0.5L34.7 0.5ZM64.05-26.65Q63.55-26.65 63.6-27.15L63.6-27.15 64.2-30.65Q64.45-32.1 65.27-32.88 66.09-33.65 67.34-33.65L67.34-33.65 67.55-33.65Q67.84-33.65 67.92-33.55 68-33.45 67.95-33.15L67.95-33.15 67.4-29.7Q67.2-28.3 66.34-27.48 65.5-26.65 64.25-26.65L64.25-26.65 64.05-26.65ZM61.1 0.5Q59.5 0.5 59.5-1.8L59.5-1.8Q59.5-2.95 59.8-4.45L59.8-4.45 62.2-17.8Q62.4-19.1 62.4-19.4L62.4-19.4Q62.4-20.15 61.95-20.15L61.95-20.15Q61.35-20.15 60.5-19.2 59.65-18.25 58.65-16.2L58.65-16.2Q58.45-15.6 58.15-15.6L58.15-15.6Q57.85-15.6 57.85-16.1L57.85-16.1Q57.85-17.3 58.92-19.18 60-21.05 61.57-22.43 63.15-23.8 64.5-23.8L64.5-23.8Q66.05-23.8 66.05-21.6L66.05-21.6Q66.05-20.55 65.75-18.85L65.75-18.85 63.15-4.4 63.05-3.75Q63.05-3.2 63.5-3.2L63.5-3.2Q64.09-3.2 64.95-4.17 65.8-5.15 66.8-7.15L66.8-7.15Q67.05-7.7 67.3-7.7L67.3-7.7Q67.59-7.7 67.59-7.05L67.59-7.05Q67.59-5.9 66.52-4.08 65.45-2.25 63.9-0.88 62.35 0.5 61.1 0.5L61.1 0.5ZM73.79 0.5Q72.24 0.5 71.14-0.35 70.04-1.2 69.69-2.6L69.69-2.6Q69.59-3 70.02-3.88 70.44-4.75 71.14-5.6L71.14-5.6Q71.54-6.05 71.79-6.05L71.79-6.05Q72.04-6.05 72.19-5.65L72.19-5.65Q73.69-2.15 76.34-2.15L76.34-2.15Q77.69-2.15 78.47-2.98 79.24-3.8 79.24-5.2L79.24-5.2Q79.24-7.1 77.09-10.1L77.09-10.1 76.04-11.6Q74.84-13.3 74.37-14.4 73.89-15.5 73.89-16.75L73.89-16.75Q73.89-18.75 74.97-20.35 76.04-21.95 77.79-22.88 79.54-23.8 81.44-23.8L81.44-23.8Q85.04-23.8 85.04-21.35L85.04-21.35Q85.04-20.45 84.39-19.55L84.39-19.55Q84.04-18.95 83.79-18.95L83.79-18.95Q83.49-18.95 83.24-19.55L83.24-19.55Q82.69-20.5 81.92-20.93 81.14-21.35 79.94-21.35L79.94-21.35Q78.54-21.35 77.69-20.6 76.84-19.85 76.84-18.7L76.84-18.7Q76.84-18.05 77.27-17.23 77.69-16.4 78.89-14.7L78.89-14.7 79.94-13.25Q81.34-11.4 81.89-10.08 82.44-8.75 82.44-7.3L82.44-7.3Q82.44-5.45 81.24-3.63 80.04-1.8 78.04-0.65 76.04 0.5 73.79 0.5L73.79 0.5ZM91.19 0.5Q89.09 0.5 88.02-1.13 86.94-2.75 86.94-5.65L86.94-5.65Q86.94-9.7 88.89-13.95 90.84-18.2 93.72-21 96.59-23.8 99.19-23.8L99.19-23.8Q101.14-23.8 102.19-22.08 103.24-20.35 103.24-17.55L103.24-17.55Q103.24-13.8 101.42-9.55 99.59-5.3 96.79-2.4 93.99 0.5 91.19 0.5L91.19 0.5ZM93.64-2.8Q95.29-2.8 96.64-4.48 97.99-6.15 98.79-8.93 99.59-11.7 99.59-14.8L99.59-14.8Q99.59-20.5 96.64-20.5L96.64-20.5Q94.79-20.5 93.42-18.5 92.04-16.5 91.31-13.63 90.59-10.75 90.59-8.25L90.59-8.25Q90.59-5.85 91.31-4.33 92.04-2.8 93.64-2.8L93.64-2.8ZM109.94 0.5Q107.79 0.5 106.74-1.43 105.69-3.35 105.69-6L105.69-6Q105.69-9.8 107.51-14 109.34-18.2 112.24-21 115.14-23.8 118.24-23.8L118.24-23.8Q119.59-23.8 120.36-23.28 121.14-22.75 121.14-21.9L121.14-21.9Q121.14-21.1 120.54-20.05L120.54-20.05Q120.19-19.45 119.89-19.45L119.89-19.45Q119.69-19.45 119.54-19.7L119.54-19.7Q118.44-21.15 116.79-21.15L116.79-21.15Q114.79-21.15 113.06-19.48 111.34-17.8 110.34-15 109.34-12.2 109.34-8.95L109.34-8.95Q109.34-3.35 112.44-3.35L112.44-3.35Q114.04-3.35 115.19-4.55 116.34-5.75 117.34-7.5L117.34-7.5Q117.44-7.65 117.59-7.9 117.74-8.15 117.86-8.25 117.99-8.35 118.19-8.35L118.19-8.35Q118.34-8.35 118.44-8.18 118.54-8 118.54-7.75L118.54-7.75Q118.54-6.3 117.19-4.33 115.84-2.35 113.81-0.93 111.79 0.5 109.94 0.5L109.94 0.5ZM129.74-26.65Q129.24-26.65 129.29-27.15L129.29-27.15 129.89-30.65Q130.14-32.1 130.96-32.88 131.79-33.65 133.04-33.65L133.04-33.65 133.24-33.65Q133.54-33.65 133.61-33.55 133.69-33.45 133.64-33.15L133.64-33.15 133.09-29.7Q132.89-28.3 132.04-27.48 131.19-26.65 129.94-26.65L129.94-26.65 129.74-26.65ZM126.79 0.5Q125.19 0.5 125.19-1.8L125.19-1.8Q125.19-2.95 125.49-4.45L125.49-4.45 127.89-17.8Q128.09-19.1 128.09-19.4L128.09-19.4Q128.09-20.15 127.64-20.15L127.64-20.15Q127.04-20.15 126.19-19.2 125.34-18.25 124.34-16.2L124.34-16.2Q124.14-15.6 123.84-15.6L123.84-15.6Q123.54-15.6 123.54-16.1L123.54-16.1Q123.54-17.3 124.61-19.18 125.69-21.05 127.26-22.43 128.84-23.8 130.19-23.8L130.19-23.8Q131.74-23.8 131.74-21.6L131.74-21.6Q131.74-20.55 131.44-18.85L131.44-18.85 128.84-4.4 128.74-3.75Q128.74-3.2 129.19-3.2L129.19-3.2Q129.79-3.2 130.64-4.17 131.49-5.15 132.49-7.15L132.49-7.15Q132.74-7.7 132.99-7.7L132.99-7.7Q133.29-7.7 133.29-7.05L133.29-7.05Q133.29-5.9 132.21-4.08 131.14-2.25 129.59-0.88 128.04 0.5 126.79 0.5L126.79 0.5ZM139.38 0.5Q136.83 0.5 136.83-4.35L136.83-4.35Q136.83-9 138.86-13.53 140.88-18.05 144.33-20.93 147.78-23.8 151.78-23.8L151.78-23.8Q153.83-23.8 155.33-23.15L155.33-23.15Q154.68-20.6 154.43-19.4L154.43-19.4 153.38-14Q151.98-7.6 151.68-5.15L151.68-5.15Q151.63-4.8 151.63-4.3L151.63-4.3Q151.63-3.2 152.28-3.2L152.28-3.2Q153.08-3.2 153.78-4.23 154.48-5.25 155.38-7.15L155.38-7.15Q155.43-7.2 155.56-7.45 155.68-7.7 155.88-7.7L155.88-7.7Q156.18-7.7 156.18-7.1L156.18-7.1 156.08-6.3Q155.73-4.65 154.66-3.05 153.58-1.45 152.26-0.48 150.93 0.5 149.88 0.5L149.88 0.5Q148.13 0.5 148.13-2.35L148.13-2.35Q148.13-3.45 148.38-4.6L148.38-4.6 149.23-8.95 149.18-8.95Q146.78-4.75 144.06-2.13 141.33 0.5 139.38 0.5L139.38 0.5ZM141.73-3.6Q143.13-3.6 144.96-5.78 146.78-7.95 148.36-11.1 149.93-14.25 150.53-16.75L150.53-16.75 151.33-19.95Q149.83-20.95 148.18-20.95L148.18-20.95Q146.03-20.95 144.26-18.48 142.48-16 141.48-12.48 140.48-8.95 140.48-6.1L140.48-6.1Q140.48-4.85 140.76-4.23 141.03-3.6 141.73-3.6L141.73-3.6ZM161.83 0.5Q160.88 0.5 160.46-0.43 160.03-1.35 160.03-2.75L160.03-2.75Q160.03-3.7 160.23-5L160.23-5 163.18-24.7Q164.23-31.5 165.73-35.2 167.23-38.9 169.33-40.55L169.33-40.55Q170.53-41.5 171.83-41.95 173.13-42.4 175.83-43.05L175.83-43.05Q177.08-43.3 177.43-43.45 177.78-43.6 177.88-43.6L177.88-43.6Q178.23-43.6 178.23-43.2L178.23-43.2Q178.23-43 178-42.6 177.78-42.2 177.28-41.75L177.28-41.75Q176.73-41.25 176.23-41.08 175.73-40.9 175.03-40.85L175.03-40.85Q172.13-40.55 170.83-39.05L170.83-39.05Q168.38-36.25 167.23-28.7L167.23-28.7 163.58-5.15Q163.53-4.8 163.53-4.3L163.53-4.3Q163.53-3.2 164.18-3.2L164.18-3.2Q165.68-3.2 167.68-7.65L167.68-7.65Q167.88-8.2 168.23-8.2L168.23-8.2Q168.58-8.2 168.58-7.5L168.58-7.5Q168.58-5.85 167.41-3.95 166.23-2.05 164.63-0.78 163.03 0.5 161.83 0.5L161.83 0.5ZM178.93-26.65Q178.43-26.65 178.48-27.15L178.48-27.15 179.08-30.65Q179.33-32.1 180.15-32.88 180.98-33.65 182.23-33.65L182.23-33.65 182.43-33.65Q182.73-33.65 182.8-33.55 182.88-33.45 182.83-33.15L182.83-33.15 182.28-29.7Q182.08-28.3 181.23-27.48 180.38-26.65 179.13-26.65L179.13-26.65 178.93-26.65ZM175.98 0.5Q174.38 0.5 174.38-1.8L174.38-1.8Q174.38-2.95 174.68-4.45L174.68-4.45 177.08-17.8Q177.28-19.1 177.28-19.4L177.28-19.4Q177.28-20.15 176.83-20.15L176.83-20.15Q176.23-20.15 175.38-19.2 174.53-18.25 173.53-16.2L173.53-16.2Q173.33-15.6 173.03-15.6L173.03-15.6Q172.73-15.6 172.73-16.1L172.73-16.1Q172.73-17.3 173.8-19.18 174.88-21.05 176.45-22.43 178.03-23.8 179.38-23.8L179.38-23.8Q180.93-23.8 180.93-21.6L180.93-21.6Q180.93-20.55 180.63-18.85L180.63-18.85 178.03-4.4 177.93-3.75Q177.93-3.2 178.38-3.2L178.38-3.2Q178.98-3.2 179.83-4.17 180.68-5.15 181.68-7.15L181.68-7.15Q181.93-7.7 182.18-7.7L182.18-7.7Q182.48-7.7 182.48-7.05L182.48-7.05Q182.48-5.9 181.4-4.08 180.33-2.25 178.78-0.88 177.23 0.5 175.98 0.5L175.98 0.5ZM190.83 0.5Q189.33 0.5 188.72-0.53 188.13-1.55 188.13-3.3L188.13-3.3Q188.13-4.6 188.35-6.08 188.58-7.55 188.63-7.85L188.63-7.85 190.68-20.7 185.63-20.7Q185.38-20.7 185.38-20.95L185.38-20.95Q185.38-21.45 186.47-22.38 187.58-23.3 188.08-23.3L188.08-23.3 191.08-23.3 191.58-26.4Q191.78-28.05 193.13-29.35 194.47-30.65 195.83-30.65L195.83-30.65Q196.08-30.65 196.08-30.4L196.08-30.4Q196.08-30.2 195.63-29.23 195.18-28.25 194.97-27.15L194.97-27.15 194.38-23.3 199.28-23.3Q199.58-23.3 199.58-23L199.58-23Q199.58-22.6 198.4-21.65 197.22-20.7 196.88-20.7L196.88-20.7 194.08-20.7 192.03-7.95Q191.97-7.6 191.75-6.25 191.53-4.9 191.53-4.15L191.53-4.15Q191.53-2.5 192.63-2.5L192.63-2.5Q193.43-2.5 194.33-3.28 195.22-4.05 195.93-5.45L195.93-5.45Q195.97-5.55 196.05-5.65 196.13-5.75 196.22-5.75L196.22-5.75Q196.47-5.75 196.47-5.1L196.47-5.1Q196.47-4.1 195.6-2.75 194.72-1.4 193.4-0.45 192.08 0.5 190.83 0.5L190.83 0.5ZM203.27 19.95Q201.32 19.95 199.97 18.88 198.62 17.8 197.97 16.15 197.32 14.5 197.32 12.75L197.32 12.75Q197.32 11.1 197.92 10.13 198.52 9.15 199.22 8.8 199.92 8.45 200.27 8.45L200.27 8.45Q200.52 8.45 200.52 8.95L200.52 8.95Q200.52 16.75 205.52 16.75L205.52 16.75Q209.07 16.75 211.07 12.5L211.07 12.5Q211.82 10.85 212.47 8.35 213.12 5.85 214.22 0.55L214.22 0.55Q214.67-1.6 214.72-1.9L214.72-1.9 216.22-8.8 216.17-8.8Q214.97-6.3 213.32-4.17 211.67-2.05 210.07-0.78 208.47 0.5 207.47 0.5L207.47 0.5Q206.37 0.5 205.95-1.18 205.52-2.85 205.57-5.25L205.57-5.25 205.97-17.75Q206.02-18.15 206.02-18.85L206.02-18.85Q206.02-19.65 205.85-20.05 205.67-20.45 205.17-20.45L205.17-20.45Q204.52-20.45 203.72-19.6 202.92-18.75 202.32-17.4L202.32-17.4Q202.02-16.55 201.67-16.55L201.67-16.55Q201.27-16.55 201.27-17.15L201.27-17.15Q201.27-18.4 202.17-20 203.07-21.6 204.45-22.7 205.82-23.8 207.07-23.8L207.07-23.8Q208.47-23.8 208.97-22.4 209.47-21 209.47-18.6L209.47-18.6 209.42-17 208.97-8.75 208.92-7.1Q208.92-5.5 209.15-4.8 209.37-4.1 209.97-4.1L209.97-4.1Q211.07-4.1 212.57-6.2 214.07-8.3 215.42-11.35 216.77-14.4 217.42-17.05L217.42-17.05 218.17-20.1Q218.62-21.95 219.9-22.88 221.17-23.8 222.22-23.8L222.22-23.8Q222.62-23.8 222.62-23.55L222.62-23.55Q222.62-23.3 222.45-22.85 222.27-22.4 222.17-22.2L222.17-22.2Q221.77-21.15 221.47-19.93 221.17-18.7 220.87-17L220.87-17 218.22-2.8 217.72 0.05Q217.12 3.55 216.62 5.58 216.12 7.6 215.22 9.58 214.32 11.55 212.67 13.65L212.67 13.65Q210.42 16.65 207.97 18.3 205.52 19.95 203.27 19.95L203.27 19.95Z" opacity="1" transform="matrix(1,0,0,1,0,0)" fill="#ffffff" class="wordmark-text-0" data-fill-palette-color="primary" id="text-0"></path></svg></g></svg></g></svg></g></svg></g><g transform="matrix(1,0,0,1,115.46916884614423,0)"><svg viewBox="0 0 164.58166230771153 249.5788374355174" height="249.5788374355174" width="164.58166230771153"><g><svg xmlns="http://www.w3.org/2000/svg" xmlns:xlink="http://www.w3.org/1999/xlink" version="1.1" x="0" y="0" viewBox="14.529654654166144 5.51275 34.94178342892323 52.98725" enable-background="new 0 0 64 64" xml:space="preserve" height="249.5788374355174" width="164.58166230771153" class="icon-icon-0" data-fill-palette-color="accent" id="icon-0"><g fill="#bc2a20" data-fill-palette-color="accent"><path d="M49.324 25.646c-0.116-0.116-0.28-0.168-0.443-0.138-0.725 0.132-7.124 1.341-8.749 2.967-0.85 0.85-1.317 1.979-1.317 3.182 0 1.032 0.363 2 0.998 2.794L32.5 41.764V24.475c3.351-0.257 6-3.06 6-6.475 0-3.43-5.84-11.924-6.088-12.284-0.188-0.271-0.636-0.271-0.823 0C31.34 6.076 25.5 14.57 25.5 18c0 3.415 2.649 6.218 6 6.475v12.318l-7.313-7.313c0.636-0.794 0.999-1.762 0.999-2.793 0-1.202-0.468-2.332-1.318-3.182-1.625-1.625-8.024-2.834-8.749-2.967-0.161-0.032-0.327 0.021-0.443 0.138-0.116 0.116-0.168 0.282-0.138 0.443 0.132 0.725 1.341 7.124 2.967 8.749 0.85 0.85 1.98 1.318 3.182 1.318 1.032 0 1.999-0.363 2.793-0.999l8.02 8.02V47.5h-5.051c-0.232-1.14-1.242-2-2.449-2-1.2 0-3.779 1.74-4.284 2.089C19.581 47.682 19.5 47.836 19.5 48s0.081 0.318 0.216 0.411C20.221 48.76 22.8 50.5 24 50.5c1.207 0 2.217-0.86 2.449-2H31.5v5.051c-1.14 0.232-2 1.241-2 2.449 0 1.379 1.122 2.5 2.5 2.5 1.379 0 2.5-1.121 2.5-2.5 0-1.208-0.86-2.217-2-2.449V43.178l8.02-8.02c0.794 0.636 1.762 0.999 2.794 0.999 1.202 0 2.332-0.468 3.183-1.318 1.624-1.625 2.834-8.024 2.967-8.749C49.492 25.928 49.44 25.763 49.324 25.646zM18.211 29.161c-1.061-1.061-2.093-5.264-2.55-7.5 2.235 0.456 6.438 1.489 7.5 2.55 0.661 0.661 1.025 1.54 1.025 2.475 0 0.935-0.364 1.813-1.025 2.475C21.838 30.483 19.533 30.482 18.211 29.161zM24 49.5c-0.546 0-1.971-0.78-3.096-1.5 1.125-0.72 2.549-1.5 3.096-1.5 0.827 0 1.5 0.673 1.5 1.5S24.827 49.5 24 49.5zM26.5 18c0-2.395 3.651-8.347 5.5-11.11 1.849 2.763 5.5 8.714 5.5 11.11 0 3.033-2.468 5.5-5.5 5.5C28.967 23.5 26.5 21.033 26.5 18zM33.5 56c0 0.827-0.673 1.5-1.5 1.5s-1.5-0.673-1.5-1.5 0.673-1.5 1.5-1.5S33.5 55.173 33.5 56zM45.789 34.132c-1.321 1.322-3.627 1.323-4.95 0-0.661-0.661-1.024-1.54-1.024-2.475s0.363-1.814 1.024-2.475c1.061-1.061 5.264-2.094 7.499-2.55C47.882 28.868 46.85 33.071 45.789 34.132z" fill="#ffffff" data-fill-palette-color="accent"></path></g></svg></g></svg></g><g></g></svg></g></svg></g></svg></g><defs></defs></svg><rect width="250.7164554241165" height="247.2" fill="none" stroke="none" visibility="hidden"></rect></g></svg></g></svg>